<svg width="24" height="24" viewBox="0 0 24 24" fill="none" xmlns="http://www.w3.org/2000/svg">
<path d="M24 12C24 5.37253 18.6275 0 12 0C5.37253 0 0 5.37253 0 12C0 17.9898 4.38892 22.9553 10.1278 23.8575V15.4731H7.08197V12.0068H10.1278V9.36122C10.1278 6.35613 11.9186 4.69418 14.6591 4.69418C15.9751 4.69418 17.3454 4.9316 17.3454 4.9316V7.88242H15.8327C14.3403 7.88242 13.879 8.80497 13.879 9.75466V12.0068H17.2097L16.6806 15.4731H13.8858V23.8575C19.6246 22.9553 24.0136 17.9898 24.0136 12H24Z" fill="#337FFF"/>
<path d="M16.6738 15.4665L17.2029 12.0001H13.8723V9.74799C13.8723 8.7983 14.3403 7.87574 15.8259 7.87574H17.3386V4.92492C17.3386 4.92492 15.9684 4.6875 14.6524 4.6875C11.9118 4.6875 10.121 6.34946 10.121 9.35454V12.0001H7.0752V15.4665H10.121V23.8509C10.7315 23.9458 11.3556 24.0001 11.9932 24.0001C12.6309 24.0001 13.255 23.9526 13.8655 23.8509V15.4665H16.6603H16.6738Z" fill="white"/>
</svg>
