<svg width="24" height="24" viewBox="0 0 24 24" fill="none" xmlns="http://www.w3.org/2000/svg">
<path d="M12 24C18.6274 24 24 18.6274 24 12C24 5.37258 18.6274 0 12 0C5.37258 0 0 5.37258 0 12C0 18.6274 5.37258 24 12 24Z" fill="#C94074"/>
<path d="M15.7241 7.46167C15.2696 7.46167 14.8965 7.82798 14.8965 8.28926C14.8965 8.75053 15.2628 9.11684 15.7241 9.11684C16.1853 9.11684 16.5517 8.75053 16.5517 8.28926C16.5517 7.82798 16.1853 7.46167 15.7241 7.46167Z" fill="white"/>
<path d="M12.0611 8.51953C10.1481 8.51953 8.59473 10.073 8.59473 11.9859C8.59473 13.8988 10.1481 15.4523 12.0611 15.4523C13.974 15.4523 15.5275 13.8988 15.5275 11.9859C15.5275 10.073 13.974 8.51953 12.0611 8.51953ZM12.0611 14.2041C10.8401 14.2041 9.84289 13.2069 9.84289 11.9859C9.84289 10.7649 10.8401 9.76769 12.0611 9.76769C13.2821 9.76769 14.2793 10.7649 14.2793 11.9859C14.2793 13.2069 13.2821 14.2041 12.0611 14.2041Z" fill="white"/>
<path d="M14.8087 19.0206H9.19194C6.85841 19.0206 4.96582 17.1212 4.96582 14.7945V9.17778C4.96582 6.84425 6.85841 4.95166 9.19194 4.95166H14.8087C17.1422 4.95166 19.0348 6.84425 19.0348 9.17778V14.7945C19.0348 17.128 17.1354 19.0206 14.8087 19.0206ZM9.19194 6.27444C7.59103 6.27444 6.2886 7.57687 6.2886 9.17778V14.7945C6.2886 16.3954 7.59103 17.6978 9.19194 17.6978H14.8087C16.4096 17.6978 17.712 16.3954 17.712 14.7945V9.17778C17.712 7.57687 16.4096 6.27444 14.8087 6.27444H9.19194Z" fill="white"/>
</svg>
