<svg width="24" height="24" viewBox="0 0 24 24" fill="none" xmlns="http://www.w3.org/2000/svg">
<path d="M23.85 13.9051C24.9016 7.3616 20.4496 1.20459 13.9062 0.152986C7.36272 -0.89862 1.20571 3.5534 0.154101 10.0969C-0.897505 16.6403 3.55452 22.7973 10.098 23.8489C16.6414 24.9005 22.7984 20.4485 23.85 13.9051Z" fill="#00D95F"/>
<path d="M5.51465 18.7903L6.51861 15.0594C5.94879 14.0351 5.6571 12.8887 5.6571 11.7287C5.6571 7.92994 8.75038 4.83667 12.5491 4.83667C16.3479 4.83667 19.4412 7.92994 19.4412 11.7287C19.4412 15.5275 16.3479 18.6207 12.5491 18.6207C11.4095 18.6207 10.2834 18.3358 9.2727 17.7864L5.52143 18.7903H5.51465ZM9.45586 16.389L9.69328 16.5314C10.5616 17.047 11.5452 17.3183 12.5491 17.3183C15.6288 17.3183 18.1387 14.8084 18.1387 11.7287C18.1387 8.64899 15.6288 6.1391 12.5491 6.1391C9.46943 6.1391 6.95953 8.64899 6.95953 11.7287C6.95953 12.7462 7.24444 13.7502 7.78034 14.6252L7.92279 14.8627L7.36654 16.9452L9.46264 16.3822L9.45586 16.389Z" fill="white"/>
<path fill-rule="evenodd" clip-rule="evenodd" d="M15.1069 12.6853C14.822 12.5158 14.4557 12.3258 14.1165 12.4615C13.8587 12.5632 13.6959 12.9702 13.5331 13.1738C13.4449 13.2823 13.3432 13.2959 13.2143 13.2416C12.251 12.8549 11.5116 12.2173 10.9825 11.3286C10.8943 11.193 10.9079 11.0844 11.0164 10.9556C11.1792 10.7656 11.376 10.5553 11.4234 10.2976C11.4641 10.0398 11.3488 9.74809 11.2403 9.51745C11.1046 9.22576 10.9554 8.81197 10.6637 8.64916C10.3991 8.49993 10.0464 8.58133 9.80897 8.77805C9.40196 9.11044 9.19846 9.63277 9.20524 10.1551C9.20524 10.3043 9.22559 10.4468 9.25951 10.5892C9.34091 10.9284 9.50372 11.254 9.68009 11.5525C9.81576 11.7831 9.95821 12.007 10.1142 12.2173C10.6298 12.916 11.2674 13.5265 12.0136 13.981C12.3867 14.2048 12.7801 14.4083 13.1939 14.544C13.6552 14.7 14.069 14.8561 14.571 14.7611C15.0933 14.6593 15.6089 14.3405 15.8191 13.8318C15.8802 13.6825 15.9141 13.5129 15.8802 13.3569C15.8124 13.0313 15.3647 12.8346 15.1001 12.6786L15.1069 12.6853Z" fill="white"/>
</svg>
